<mxfile host="app.diagrams.net" agent="Mozilla/5.0 (Windows NT 10.0; Win64; x64) AppleWebKit/537.36 (KHTML, like Gecko) Chrome/130.0.0.0 Safari/537.36" version="24.8.2">
  <diagram name="Страница — 1" id="UOntejemrvACpvtsWQj9">
    <mxGraphModel dx="3324" dy="1256" grid="1" gridSize="10" guides="1" tooltips="1" connect="1" arrows="1" fold="1" page="1" pageScale="1" pageWidth="4681" pageHeight="3300" math="0" shadow="0">
      <root>
        <mxCell id="0" />
        <mxCell id="1" parent="0" />
        <mxCell id="fE0YWYt9ngZXiTgXL01a-285" value="" style="rounded=1;whiteSpace=wrap;html=1;fillColor=#DCFADD;strokeColor=none;dashed=1;strokeWidth=6;glass=0;shadow=0;" parent="1" vertex="1">
          <mxGeometry x="3040" y="330" width="430" height="770" as="geometry" />
        </mxCell>
        <mxCell id="fE0YWYt9ngZXiTgXL01a-281" value="" style="rounded=1;whiteSpace=wrap;html=1;fillColor=#FFF1E0;strokeColor=none;dashed=1;strokeWidth=6;" parent="1" vertex="1">
          <mxGeometry x="2195" y="340" width="800" height="760" as="geometry" />
        </mxCell>
        <mxCell id="fE0YWYt9ngZXiTgXL01a-1" value="Прцесс доставки воды на дом" style="swimlane;html=1;childLayout=stackLayout;resizeParent=1;resizeParentMax=0;horizontal=0;startSize=20;horizontalStack=0;whiteSpace=wrap;fillColor=#FFFFFF;" parent="1" vertex="1">
          <mxGeometry x="30" y="30" width="3500" height="1100" as="geometry" />
        </mxCell>
        <mxCell id="fE0YWYt9ngZXiTgXL01a-276" style="edgeStyle=orthogonalEdgeStyle;rounded=0;orthogonalLoop=1;jettySize=auto;html=1;exitX=0.5;exitY=0;exitDx=0;exitDy=0;exitPerimeter=0;entryX=0.415;entryY=1.022;entryDx=0;entryDy=0;entryPerimeter=0;" parent="fE0YWYt9ngZXiTgXL01a-1" source="fE0YWYt9ngZXiTgXL01a-104" target="fE0YWYt9ngZXiTgXL01a-268" edge="1">
          <mxGeometry relative="1" as="geometry" />
        </mxCell>
        <mxCell id="fE0YWYt9ngZXiTgXL01a-136" style="edgeStyle=orthogonalEdgeStyle;rounded=0;orthogonalLoop=1;jettySize=auto;html=1;exitX=0.5;exitY=0;exitDx=0;exitDy=0;exitPerimeter=0;entryX=0;entryY=0.5;entryDx=0;entryDy=0;entryPerimeter=0;" parent="fE0YWYt9ngZXiTgXL01a-1" source="fE0YWYt9ngZXiTgXL01a-134" target="luvfRPABZeonIOE7UT8U-24" edge="1">
          <mxGeometry relative="1" as="geometry">
            <mxPoint x="709.9957142857145" y="490" as="targetPoint" />
            <Array as="points">
              <mxPoint x="710" y="550" />
            </Array>
          </mxGeometry>
        </mxCell>
        <mxCell id="fE0YWYt9ngZXiTgXL01a-2" value="Клиент" style="swimlane;html=1;startSize=20;horizontal=0;" parent="fE0YWYt9ngZXiTgXL01a-1" vertex="1">
          <mxGeometry x="20" width="3480" height="360" as="geometry" />
        </mxCell>
        <mxCell id="fE0YWYt9ngZXiTgXL01a-3" value="Необходимость&amp;nbsp;&lt;div&gt;заказа воды&lt;/div&gt;" style="points=[[0.145,0.145,0],[0.5,0,0],[0.855,0.145,0],[1,0.5,0],[0.855,0.855,0],[0.5,1,0],[0.145,0.855,0],[0,0.5,0]];shape=mxgraph.bpmn.event;html=1;verticalLabelPosition=bottom;labelBackgroundColor=#ffffff;verticalAlign=top;align=center;perimeter=ellipsePerimeter;outlineConnect=0;aspect=fixed;outline=standard;symbol=general;" parent="fE0YWYt9ngZXiTgXL01a-2" vertex="1">
          <mxGeometry x="60.29" y="65" width="50" height="50" as="geometry" />
        </mxCell>
        <mxCell id="fE0YWYt9ngZXiTgXL01a-8" style="edgeStyle=orthogonalEdgeStyle;rounded=0;orthogonalLoop=1;jettySize=auto;html=1;entryX=0;entryY=0.5;entryDx=0;entryDy=0;entryPerimeter=0;" parent="fE0YWYt9ngZXiTgXL01a-2" source="fE0YWYt9ngZXiTgXL01a-3" edge="1">
          <mxGeometry relative="1" as="geometry">
            <mxPoint x="160.29" y="90" as="targetPoint" />
          </mxGeometry>
        </mxCell>
        <mxCell id="fE0YWYt9ngZXiTgXL01a-89" value="Оформить заказ в приложении (время доставки и товары)" style="points=[[0.25,0,0],[0.5,0,0],[0.75,0,0],[1,0.25,0],[1,0.5,0],[1,0.75,0],[0.75,1,0],[0.5,1,0],[0.25,1,0],[0,0.75,0],[0,0.5,0],[0,0.25,0]];shape=mxgraph.bpmn.task;whiteSpace=wrap;rectStyle=rounded;size=10;html=1;container=1;expand=0;collapsible=0;taskMarker=user;" parent="fE0YWYt9ngZXiTgXL01a-2" vertex="1">
          <mxGeometry x="160.29" y="50" width="120" height="80" as="geometry" />
        </mxCell>
        <mxCell id="fE0YWYt9ngZXiTgXL01a-201" value="" style="points=[[0.25,0.25,0],[0.5,0,0],[0.75,0.25,0],[1,0.5,0],[0.75,0.75,0],[0.5,1,0],[0.25,0.75,0],[0,0.5,0]];shape=mxgraph.bpmn.gateway2;html=1;verticalLabelPosition=bottom;labelBackgroundColor=#ffffff;verticalAlign=top;align=center;perimeter=rhombusPerimeter;outlineConnect=0;outline=none;symbol=none;gwType=exclusive;" parent="fE0YWYt9ngZXiTgXL01a-2" vertex="1">
          <mxGeometry x="2070" y="225" width="50" height="50" as="geometry" />
        </mxCell>
        <mxCell id="fE0YWYt9ngZXiTgXL01a-204" value="Получить заказ&amp;nbsp;" style="points=[[0.25,0,0],[0.5,0,0],[0.75,0,0],[1,0.25,0],[1,0.5,0],[1,0.75,0],[0.75,1,0],[0.5,1,0],[0.25,1,0],[0,0.75,0],[0,0.5,0],[0,0.25,0]];shape=mxgraph.bpmn.task;whiteSpace=wrap;rectStyle=rounded;size=10;html=1;container=1;expand=0;collapsible=0;taskMarker=manual;" parent="fE0YWYt9ngZXiTgXL01a-2" vertex="1">
          <mxGeometry x="3000" y="125" width="120" height="80" as="geometry" />
        </mxCell>
        <mxCell id="fE0YWYt9ngZXiTgXL01a-207" style="edgeStyle=orthogonalEdgeStyle;rounded=0;orthogonalLoop=1;jettySize=auto;html=1;exitX=0.5;exitY=0;exitDx=0;exitDy=0;exitPerimeter=0;entryX=0;entryY=0.5;entryDx=0;entryDy=0;entryPerimeter=0;" parent="fE0YWYt9ngZXiTgXL01a-2" source="fE0YWYt9ngZXiTgXL01a-201" target="fE0YWYt9ngZXiTgXL01a-204" edge="1">
          <mxGeometry relative="1" as="geometry" />
        </mxCell>
        <mxCell id="fE0YWYt9ngZXiTgXL01a-209" value="Клиент вышел на связь" style="text;strokeColor=none;align=center;fillColor=none;html=1;verticalAlign=middle;whiteSpace=wrap;rounded=0;" parent="fE0YWYt9ngZXiTgXL01a-2" vertex="1">
          <mxGeometry x="2490" y="125" width="190" height="30" as="geometry" />
        </mxCell>
        <mxCell id="fE0YWYt9ngZXiTgXL01a-278" value="Изменить заказ" style="points=[[0.25,0,0],[0.5,0,0],[0.75,0,0],[1,0.25,0],[1,0.5,0],[1,0.75,0],[0.75,1,0],[0.5,1,0],[0.25,1,0],[0,0.75,0],[0,0.5,0],[0,0.25,0]];shape=mxgraph.bpmn.task;whiteSpace=wrap;rectStyle=rounded;size=10;html=1;container=1;expand=0;collapsible=0;taskMarker=user;" parent="fE0YWYt9ngZXiTgXL01a-2" vertex="1">
          <mxGeometry x="460" y="205" width="120" height="80" as="geometry" />
        </mxCell>
        <mxCell id="fE0YWYt9ngZXiTgXL01a-289" value="" style="shape=mxgraph.bpmn.data;labelPosition=center;verticalLabelPosition=bottom;align=center;verticalAlign=top;size=15;html=1;" parent="fE0YWYt9ngZXiTgXL01a-2" vertex="1">
          <mxGeometry x="150" y="215" width="40" height="60" as="geometry" />
        </mxCell>
        <mxCell id="fE0YWYt9ngZXiTgXL01a-292" style="edgeStyle=orthogonalEdgeStyle;rounded=0;orthogonalLoop=1;jettySize=auto;html=1;exitX=0.25;exitY=1;exitDx=0;exitDy=0;exitPerimeter=0;entryX=0;entryY=0;entryDx=12.5;entryDy=0;entryPerimeter=0;dashed=1;dashPattern=1 4;" parent="fE0YWYt9ngZXiTgXL01a-2" source="fE0YWYt9ngZXiTgXL01a-89" target="fE0YWYt9ngZXiTgXL01a-289" edge="1">
          <mxGeometry relative="1" as="geometry">
            <Array as="points">
              <mxPoint x="190" y="175" />
              <mxPoint x="163" y="175" />
            </Array>
          </mxGeometry>
        </mxCell>
        <mxCell id="fE0YWYt9ngZXiTgXL01a-294" value="" style="strokeWidth=1;html=1;shape=mxgraph.flowchart.annotation_2;align=left;labelPosition=right;pointerEvents=1;direction=west;" parent="fE0YWYt9ngZXiTgXL01a-2" vertex="1">
          <mxGeometry x="130" y="220" width="20" height="50" as="geometry" />
        </mxCell>
        <mxCell id="fE0YWYt9ngZXiTgXL01a-297" value="Список товаров" style="text;strokeColor=none;align=center;fillColor=none;html=1;verticalAlign=middle;whiteSpace=wrap;rounded=0;" parent="fE0YWYt9ngZXiTgXL01a-2" vertex="1">
          <mxGeometry x="80.00000000000003" y="230" width="60" height="30" as="geometry" />
        </mxCell>
        <mxCell id="fE0YWYt9ngZXiTgXL01a-228" style="edgeStyle=orthogonalEdgeStyle;rounded=0;orthogonalLoop=1;jettySize=auto;html=1;exitX=0.5;exitY=0;exitDx=0;exitDy=0;exitPerimeter=0;" parent="fE0YWYt9ngZXiTgXL01a-1" source="fE0YWYt9ngZXiTgXL01a-227" target="fE0YWYt9ngZXiTgXL01a-229" edge="1">
          <mxGeometry relative="1" as="geometry">
            <mxPoint x="2370" y="670" as="targetPoint" />
          </mxGeometry>
        </mxCell>
        <mxCell id="fE0YWYt9ngZXiTgXL01a-240" style="edgeStyle=orthogonalEdgeStyle;rounded=0;orthogonalLoop=1;jettySize=auto;html=1;exitX=0.5;exitY=1;exitDx=0;exitDy=0;exitPerimeter=0;entryX=0;entryY=0.5;entryDx=0;entryDy=0;entryPerimeter=0;" parent="fE0YWYt9ngZXiTgXL01a-1" source="fE0YWYt9ngZXiTgXL01a-204" target="fE0YWYt9ngZXiTgXL01a-227" edge="1">
          <mxGeometry relative="1" as="geometry" />
        </mxCell>
        <mxCell id="fE0YWYt9ngZXiTgXL01a-83" value="Приложение для заказа" style="swimlane;html=1;startSize=20;horizontal=0;" parent="fE0YWYt9ngZXiTgXL01a-1" vertex="1">
          <mxGeometry x="20" y="360" width="3480" height="235" as="geometry" />
        </mxCell>
        <mxCell id="fE0YWYt9ngZXiTgXL01a-206" value="Автоматически отменить заказ" style="points=[[0.25,0,0],[0.5,0,0],[0.75,0,0],[1,0.25,0],[1,0.5,0],[1,0.75,0],[0.75,1,0],[0.5,1,0],[0.25,1,0],[0,0.75,0],[0,0.5,0],[0,0.25,0]];shape=mxgraph.bpmn.task;whiteSpace=wrap;rectStyle=rounded;size=10;html=1;container=1;expand=0;collapsible=0;taskMarker=service;" parent="fE0YWYt9ngZXiTgXL01a-83" vertex="1">
          <mxGeometry x="2229.9957142857147" y="20" width="120" height="80" as="geometry" />
        </mxCell>
        <mxCell id="fE0YWYt9ngZXiTgXL01a-216" style="edgeStyle=orthogonalEdgeStyle;rounded=0;orthogonalLoop=1;jettySize=auto;html=1;exitX=1;exitY=0.5;exitDx=0;exitDy=0;exitPerimeter=0;" parent="fE0YWYt9ngZXiTgXL01a-83" edge="1">
          <mxGeometry relative="1" as="geometry">
            <mxPoint x="2670" y="60" as="targetPoint" />
            <mxPoint x="2610" y="60" as="sourcePoint" />
          </mxGeometry>
        </mxCell>
        <mxCell id="fE0YWYt9ngZXiTgXL01a-214" value="Вернуть средства&amp;nbsp;&lt;div&gt;с вычетом сервисного сбора&lt;/div&gt;" style="points=[[0.25,0,0],[0.5,0,0],[0.75,0,0],[1,0.25,0],[1,0.5,0],[1,0.75,0],[0.75,1,0],[0.5,1,0],[0.25,1,0],[0,0.75,0],[0,0.5,0],[0,0.25,0]];shape=mxgraph.bpmn.task;whiteSpace=wrap;rectStyle=rounded;size=10;html=1;container=1;expand=0;collapsible=0;taskMarker=service;" parent="fE0YWYt9ngZXiTgXL01a-83" vertex="1">
          <mxGeometry x="2510" y="20" width="120" height="80" as="geometry" />
        </mxCell>
        <mxCell id="fE0YWYt9ngZXiTgXL01a-217" value="Уведомить об отмене заказа" style="points=[[0.25,0,0],[0.5,0,0],[0.75,0,0],[1,0.25,0],[1,0.5,0],[1,0.75,0],[0.75,1,0],[0.5,1,0],[0.25,1,0],[0,0.75,0],[0,0.5,0],[0,0.25,0]];shape=mxgraph.bpmn.task;whiteSpace=wrap;rectStyle=rounded;size=10;html=1;container=1;expand=0;collapsible=0;taskMarker=service;" parent="fE0YWYt9ngZXiTgXL01a-83" vertex="1">
          <mxGeometry x="2660" y="20" width="120" height="80" as="geometry" />
        </mxCell>
        <mxCell id="fE0YWYt9ngZXiTgXL01a-232" value="" style="points=[[0.25,0.25,0],[0.5,0,0],[0.75,0.25,0],[1,0.5,0],[0.75,0.75,0],[0.5,1,0],[0.25,0.75,0],[0,0.5,0]];shape=mxgraph.bpmn.gateway2;html=1;verticalLabelPosition=bottom;labelBackgroundColor=#ffffff;verticalAlign=top;align=center;perimeter=rhombusPerimeter;outlineConnect=0;outline=none;symbol=none;gwType=parallel;" parent="fE0YWYt9ngZXiTgXL01a-83" vertex="1">
          <mxGeometry x="2400" y="35" width="50" height="50" as="geometry" />
        </mxCell>
        <mxCell id="fE0YWYt9ngZXiTgXL01a-235" style="edgeStyle=orthogonalEdgeStyle;rounded=0;orthogonalLoop=1;jettySize=auto;html=1;exitX=1;exitY=0.5;exitDx=0;exitDy=0;exitPerimeter=0;entryX=0;entryY=0.5;entryDx=0;entryDy=0;entryPerimeter=0;" parent="fE0YWYt9ngZXiTgXL01a-83" source="fE0YWYt9ngZXiTgXL01a-206" target="fE0YWYt9ngZXiTgXL01a-232" edge="1">
          <mxGeometry relative="1" as="geometry" />
        </mxCell>
        <mxCell id="fE0YWYt9ngZXiTgXL01a-236" style="edgeStyle=orthogonalEdgeStyle;rounded=0;orthogonalLoop=1;jettySize=auto;html=1;exitX=1;exitY=0.5;exitDx=0;exitDy=0;exitPerimeter=0;entryX=0;entryY=0.5;entryDx=0;entryDy=0;entryPerimeter=0;" parent="fE0YWYt9ngZXiTgXL01a-83" source="fE0YWYt9ngZXiTgXL01a-232" target="fE0YWYt9ngZXiTgXL01a-214" edge="1">
          <mxGeometry relative="1" as="geometry" />
        </mxCell>
        <mxCell id="fE0YWYt9ngZXiTgXL01a-229" value="Уведомить клиента об успешной доставке" style="points=[[0.25,0,0],[0.5,0,0],[0.75,0,0],[1,0.25,0],[1,0.5,0],[1,0.75,0],[0.75,1,0],[0.5,1,0],[0.25,1,0],[0,0.75,0],[0,0.5,0],[0,0.25,0]];shape=mxgraph.bpmn.task;whiteSpace=wrap;rectStyle=rounded;size=10;html=1;container=1;expand=0;collapsible=0;taskMarker=service;" parent="fE0YWYt9ngZXiTgXL01a-83" vertex="1">
          <mxGeometry x="3100" y="20" width="120" height="80" as="geometry" />
        </mxCell>
        <mxCell id="fE0YWYt9ngZXiTgXL01a-245" value="" style="points=[[0.145,0.145,0],[0.5,0,0],[0.855,0.145,0],[1,0.5,0],[0.855,0.855,0],[0.5,1,0],[0.145,0.855,0],[0,0.5,0]];shape=mxgraph.bpmn.event;html=1;verticalLabelPosition=bottom;labelBackgroundColor=#ffffff;verticalAlign=top;align=center;perimeter=ellipsePerimeter;outlineConnect=0;aspect=fixed;outline=end;symbol=terminate2;" parent="fE0YWYt9ngZXiTgXL01a-83" vertex="1">
          <mxGeometry x="3275" y="35" width="50" height="50" as="geometry" />
        </mxCell>
        <mxCell id="fE0YWYt9ngZXiTgXL01a-246" style="edgeStyle=orthogonalEdgeStyle;rounded=0;orthogonalLoop=1;jettySize=auto;html=1;exitX=1;exitY=0.5;exitDx=0;exitDy=0;exitPerimeter=0;entryX=0;entryY=0.5;entryDx=0;entryDy=0;entryPerimeter=0;" parent="fE0YWYt9ngZXiTgXL01a-83" source="fE0YWYt9ngZXiTgXL01a-229" target="fE0YWYt9ngZXiTgXL01a-245" edge="1">
          <mxGeometry relative="1" as="geometry" />
        </mxCell>
        <mxCell id="fE0YWYt9ngZXiTgXL01a-247" value="Заказ доставлен" style="text;strokeColor=none;align=center;fillColor=none;html=1;verticalAlign=middle;whiteSpace=wrap;rounded=0;" parent="fE0YWYt9ngZXiTgXL01a-83" vertex="1">
          <mxGeometry x="3270" y="90" width="60" height="30" as="geometry" />
        </mxCell>
        <mxCell id="fE0YWYt9ngZXiTgXL01a-248" value="" style="points=[[0.145,0.145,0],[0.5,0,0],[0.855,0.145,0],[1,0.5,0],[0.855,0.855,0],[0.5,1,0],[0.145,0.855,0],[0,0.5,0]];shape=mxgraph.bpmn.event;html=1;verticalLabelPosition=bottom;labelBackgroundColor=#ffffff;verticalAlign=top;align=center;perimeter=ellipsePerimeter;outlineConnect=0;aspect=fixed;outline=end;symbol=terminate2;" parent="fE0YWYt9ngZXiTgXL01a-83" vertex="1">
          <mxGeometry x="2860" y="120" width="50" height="50" as="geometry" />
        </mxCell>
        <mxCell id="fE0YWYt9ngZXiTgXL01a-249" value="Заказ отменен&amp;nbsp;&lt;div&gt;(и завершен)&lt;/div&gt;" style="text;strokeColor=none;align=center;fillColor=none;html=1;verticalAlign=middle;whiteSpace=wrap;rounded=0;" parent="fE0YWYt9ngZXiTgXL01a-83" vertex="1">
          <mxGeometry x="2840" y="170" width="90" height="40" as="geometry" />
        </mxCell>
        <mxCell id="fE0YWYt9ngZXiTgXL01a-261" value="" style="points=[[0.25,0.25,0],[0.5,0,0],[0.75,0.25,0],[1,0.5,0],[0.75,0.75,0],[0.5,1,0],[0.25,0.75,0],[0,0.5,0]];shape=mxgraph.bpmn.gateway2;html=1;verticalLabelPosition=bottom;labelBackgroundColor=#ffffff;verticalAlign=top;align=center;perimeter=rhombusPerimeter;outlineConnect=0;outline=none;symbol=none;gwType=parallel;" parent="fE0YWYt9ngZXiTgXL01a-83" vertex="1">
          <mxGeometry x="2780" y="120" width="50" height="50" as="geometry" />
        </mxCell>
        <mxCell id="fE0YWYt9ngZXiTgXL01a-263" style="edgeStyle=orthogonalEdgeStyle;rounded=0;orthogonalLoop=1;jettySize=auto;html=1;exitX=1;exitY=0.5;exitDx=0;exitDy=0;exitPerimeter=0;entryX=0.5;entryY=0;entryDx=0;entryDy=0;entryPerimeter=0;" parent="fE0YWYt9ngZXiTgXL01a-83" source="fE0YWYt9ngZXiTgXL01a-217" edge="1">
          <mxGeometry relative="1" as="geometry">
            <mxPoint x="2805" y="120" as="targetPoint" />
          </mxGeometry>
        </mxCell>
        <mxCell id="fE0YWYt9ngZXiTgXL01a-265" style="edgeStyle=orthogonalEdgeStyle;rounded=0;orthogonalLoop=1;jettySize=auto;html=1;entryX=0;entryY=0.5;entryDx=0;entryDy=0;entryPerimeter=0;" parent="fE0YWYt9ngZXiTgXL01a-83" target="fE0YWYt9ngZXiTgXL01a-248" edge="1">
          <mxGeometry relative="1" as="geometry">
            <mxPoint x="2830" y="145" as="sourcePoint" />
          </mxGeometry>
        </mxCell>
        <mxCell id="fE0YWYt9ngZXiTgXL01a-91" value="Получить информацию о заказе" style="points=[[0.25,0,0],[0.5,0,0],[0.75,0,0],[1,0.25,0],[1,0.5,0],[1,0.75,0],[0.75,1,0],[0.5,1,0],[0.25,1,0],[0,0.75,0],[0,0.5,0],[0,0.25,0]];shape=mxgraph.bpmn.task;whiteSpace=wrap;rectStyle=rounded;size=10;html=1;container=1;expand=0;collapsible=0;taskMarker=service;" parent="fE0YWYt9ngZXiTgXL01a-83" vertex="1">
          <mxGeometry x="160.28571428571445" y="50" width="120" height="80" as="geometry" />
        </mxCell>
        <mxCell id="fE0YWYt9ngZXiTgXL01a-189" value="Уведомить клиента&amp;nbsp;&lt;div&gt;о начале доставки&lt;/div&gt;" style="points=[[0.25,0,0],[0.5,0,0],[0.75,0,0],[1,0.25,0],[1,0.5,0],[1,0.75,0],[0.75,1,0],[0.5,1,0],[0.25,1,0],[0,0.75,0],[0,0.5,0],[0,0.25,0]];shape=mxgraph.bpmn.task;whiteSpace=wrap;rectStyle=rounded;size=10;html=1;container=1;expand=0;collapsible=0;taskMarker=service;" parent="fE0YWYt9ngZXiTgXL01a-83" vertex="1">
          <mxGeometry x="1589.9957142857145" y="132.5" width="120" height="80" as="geometry" />
        </mxCell>
        <mxCell id="luvfRPABZeonIOE7UT8U-7" style="edgeStyle=orthogonalEdgeStyle;rounded=0;orthogonalLoop=1;jettySize=auto;html=1;exitX=0.5;exitY=0;exitDx=0;exitDy=0;exitPerimeter=0;entryX=0.5;entryY=1;entryDx=0;entryDy=0;entryPerimeter=0;" edge="1" parent="fE0YWYt9ngZXiTgXL01a-83" source="fE0YWYt9ngZXiTgXL01a-268" target="luvfRPABZeonIOE7UT8U-8">
          <mxGeometry relative="1" as="geometry">
            <mxPoint x="450" y="2.5" as="targetPoint" />
          </mxGeometry>
        </mxCell>
        <mxCell id="fE0YWYt9ngZXiTgXL01a-268" value="Предложить&amp;nbsp;&lt;div&gt;клиенту заменить отсутствующие товары&lt;/div&gt;" style="points=[[0.25,0,0],[0.5,0,0],[0.75,0,0],[1,0.25,0],[1,0.5,0],[1,0.75,0],[0.75,1,0],[0.5,1,0],[0.25,1,0],[0,0.75,0],[0,0.5,0],[0,0.25,0]];shape=mxgraph.bpmn.task;whiteSpace=wrap;rectStyle=rounded;size=10;html=1;container=1;expand=0;collapsible=0;taskMarker=service;" parent="fE0YWYt9ngZXiTgXL01a-83" vertex="1">
          <mxGeometry x="459.9957142857145" y="132.5" width="120" height="80" as="geometry" />
        </mxCell>
        <mxCell id="luvfRPABZeonIOE7UT8U-11" value="Уведомить клиента о начале сборки заказа" style="points=[[0.25,0,0],[0.5,0,0],[0.75,0,0],[1,0.25,0],[1,0.5,0],[1,0.75,0],[0.75,1,0],[0.5,1,0],[0.25,1,0],[0,0.75,0],[0,0.5,0],[0,0.25,0]];shape=mxgraph.bpmn.task;whiteSpace=wrap;rectStyle=rounded;size=10;html=1;container=1;expand=0;collapsible=0;taskMarker=service;" vertex="1" parent="fE0YWYt9ngZXiTgXL01a-268">
          <mxGeometry width="120" height="80" as="geometry" />
        </mxCell>
        <mxCell id="luvfRPABZeonIOE7UT8U-4" value="&lt;span style=&quot;background-color: rgb(255, 255, 255);&quot;&gt;Прошло 15 минут&lt;/span&gt;" style="text;strokeColor=none;align=center;fillColor=none;html=1;verticalAlign=middle;whiteSpace=wrap;rounded=0;" vertex="1" parent="fE0YWYt9ngZXiTgXL01a-83">
          <mxGeometry x="2050" y="85" width="90" height="30" as="geometry" />
        </mxCell>
        <mxCell id="luvfRPABZeonIOE7UT8U-8" value="Уведомить клиента о начале сборки заказа" style="points=[[0.25,0,0],[0.5,0,0],[0.75,0,0],[1,0.25,0],[1,0.5,0],[1,0.75,0],[0.75,1,0],[0.5,1,0],[0.25,1,0],[0,0.75,0],[0,0.5,0],[0,0.25,0]];shape=mxgraph.bpmn.task;whiteSpace=wrap;rectStyle=rounded;size=10;html=1;container=1;expand=0;collapsible=0;taskMarker=service;" vertex="1" parent="fE0YWYt9ngZXiTgXL01a-83">
          <mxGeometry x="459.9957142857145" y="22.5" width="120" height="80" as="geometry" />
        </mxCell>
        <mxCell id="luvfRPABZeonIOE7UT8U-10" value="Предложить&amp;nbsp;&lt;div&gt;клиенту заменить отсутствующие товары&lt;/div&gt;" style="points=[[0.25,0,0],[0.5,0,0],[0.75,0,0],[1,0.25,0],[1,0.5,0],[1,0.75,0],[0.75,1,0],[0.5,1,0],[0.25,1,0],[0,0.75,0],[0,0.5,0],[0,0.25,0]];shape=mxgraph.bpmn.task;whiteSpace=wrap;rectStyle=rounded;size=10;html=1;container=1;expand=0;collapsible=0;taskMarker=service;" vertex="1" parent="luvfRPABZeonIOE7UT8U-8">
          <mxGeometry width="120" height="80" as="geometry" />
        </mxCell>
        <mxCell id="luvfRPABZeonIOE7UT8U-24" value="" style="points=[[0.25,0.25,0],[0.5,0,0],[0.75,0.25,0],[1,0.5,0],[0.75,0.75,0],[0.5,1,0],[0.25,0.75,0],[0,0.5,0]];shape=mxgraph.bpmn.gateway2;html=1;verticalLabelPosition=bottom;labelBackgroundColor=#ffffff;verticalAlign=top;align=center;perimeter=rhombusPerimeter;outlineConnect=0;outline=none;symbol=none;gwType=parallel;" vertex="1" parent="fE0YWYt9ngZXiTgXL01a-83">
          <mxGeometry x="740" y="165" width="50" height="50" as="geometry" />
        </mxCell>
        <mxCell id="luvfRPABZeonIOE7UT8U-25" value="Уведомить клиента&amp;nbsp;&lt;div&gt;о начале сборки заказа&lt;/div&gt;" style="points=[[0.25,0,0],[0.5,0,0],[0.75,0,0],[1,0.25,0],[1,0.5,0],[1,0.75,0],[0.75,1,0],[0.5,1,0],[0.25,1,0],[0,0.75,0],[0,0.5,0],[0,0.25,0]];shape=mxgraph.bpmn.task;whiteSpace=wrap;rectStyle=rounded;size=10;html=1;container=1;expand=0;collapsible=0;taskMarker=service;" vertex="1" parent="fE0YWYt9ngZXiTgXL01a-83">
          <mxGeometry x="789.9957142857145" y="50" width="120" height="80" as="geometry" />
        </mxCell>
        <mxCell id="luvfRPABZeonIOE7UT8U-27" style="edgeStyle=orthogonalEdgeStyle;rounded=0;orthogonalLoop=1;jettySize=auto;html=1;exitX=0.5;exitY=0;exitDx=0;exitDy=0;exitPerimeter=0;entryX=0;entryY=0.5;entryDx=0;entryDy=0;entryPerimeter=0;" edge="1" parent="fE0YWYt9ngZXiTgXL01a-83" source="luvfRPABZeonIOE7UT8U-24" target="luvfRPABZeonIOE7UT8U-25">
          <mxGeometry relative="1" as="geometry" />
        </mxCell>
        <mxCell id="luvfRPABZeonIOE7UT8U-28" value="" style="points=[[0.25,0.25,0],[0.5,0,0],[0.75,0.25,0],[1,0.5,0],[0.75,0.75,0],[0.5,1,0],[0.25,0.75,0],[0,0.5,0]];shape=mxgraph.bpmn.gateway2;html=1;verticalLabelPosition=bottom;labelBackgroundColor=#ffffff;verticalAlign=top;align=center;perimeter=rhombusPerimeter;outlineConnect=0;outline=none;symbol=none;gwType=parallel;" vertex="1" parent="fE0YWYt9ngZXiTgXL01a-83">
          <mxGeometry x="910" y="162.5" width="50" height="50" as="geometry" />
        </mxCell>
        <mxCell id="luvfRPABZeonIOE7UT8U-29" style="edgeStyle=orthogonalEdgeStyle;rounded=0;orthogonalLoop=1;jettySize=auto;html=1;exitX=1;exitY=0.5;exitDx=0;exitDy=0;exitPerimeter=0;entryX=0.5;entryY=0;entryDx=0;entryDy=0;entryPerimeter=0;" edge="1" parent="fE0YWYt9ngZXiTgXL01a-83" source="luvfRPABZeonIOE7UT8U-25" target="luvfRPABZeonIOE7UT8U-28">
          <mxGeometry relative="1" as="geometry" />
        </mxCell>
        <mxCell id="fE0YWYt9ngZXiTgXL01a-173" value="Найти курьера для доставки" style="points=[[0.25,0,0],[0.5,0,0],[0.75,0,0],[1,0.25,0],[1,0.5,0],[1,0.75,0],[0.75,1,0],[0.5,1,0],[0.25,1,0],[0,0.75,0],[0,0.5,0],[0,0.25,0]];shape=mxgraph.bpmn.task;whiteSpace=wrap;rectStyle=rounded;size=10;html=1;container=1;expand=0;collapsible=0;taskMarker=service;" parent="fE0YWYt9ngZXiTgXL01a-83" vertex="1">
          <mxGeometry x="1139.9957142857145" y="135" width="120" height="80" as="geometry" />
        </mxCell>
        <mxCell id="fE0YWYt9ngZXiTgXL01a-172" style="edgeStyle=orthogonalEdgeStyle;rounded=0;orthogonalLoop=1;jettySize=auto;html=1;exitX=1;exitY=0.5;exitDx=0;exitDy=0;exitPerimeter=0;" parent="fE0YWYt9ngZXiTgXL01a-83" source="fE0YWYt9ngZXiTgXL01a-168" edge="1">
          <mxGeometry relative="1" as="geometry">
            <mxPoint x="1140" y="175.1428571428571" as="targetPoint" />
          </mxGeometry>
        </mxCell>
        <mxCell id="fE0YWYt9ngZXiTgXL01a-168" value="Уведомить клиента&amp;nbsp;&lt;div&gt;о собранном заказе&lt;/div&gt;" style="points=[[0.25,0,0],[0.5,0,0],[0.75,0,0],[1,0.25,0],[1,0.5,0],[1,0.75,0],[0.75,1,0],[0.5,1,0],[0.25,1,0],[0,0.75,0],[0,0.5,0],[0,0.25,0]];shape=mxgraph.bpmn.task;whiteSpace=wrap;rectStyle=rounded;size=10;html=1;container=1;expand=0;collapsible=0;taskMarker=service;" parent="fE0YWYt9ngZXiTgXL01a-83" vertex="1">
          <mxGeometry x="979.9957142857145" y="135" width="120" height="80" as="geometry" />
        </mxCell>
        <mxCell id="luvfRPABZeonIOE7UT8U-53" style="edgeStyle=orthogonalEdgeStyle;rounded=0;orthogonalLoop=1;jettySize=auto;html=1;exitX=1;exitY=0.5;exitDx=0;exitDy=0;exitPerimeter=0;" edge="1" parent="fE0YWYt9ngZXiTgXL01a-83" source="luvfRPABZeonIOE7UT8U-50" target="fE0YWYt9ngZXiTgXL01a-206">
          <mxGeometry relative="1" as="geometry" />
        </mxCell>
        <mxCell id="luvfRPABZeonIOE7UT8U-50" value="" style="points=[[0.145,0.145,0],[0.5,0,0],[0.855,0.145,0],[1,0.5,0],[0.855,0.855,0],[0.5,1,0],[0.145,0.855,0],[0,0.5,0]];shape=mxgraph.bpmn.event;html=1;verticalLabelPosition=bottom;labelBackgroundColor=#ffffff;verticalAlign=top;align=center;perimeter=ellipsePerimeter;outlineConnect=0;aspect=fixed;outline=standard;symbol=timer;fillColor=#FFFFFF;" vertex="1" parent="fE0YWYt9ngZXiTgXL01a-83">
          <mxGeometry x="2070" y="35" width="50" height="50" as="geometry" />
        </mxCell>
        <mxCell id="fE0YWYt9ngZXiTgXL01a-68" value="Сотрудник склада" style="swimlane;html=1;startSize=20;horizontal=0;" parent="fE0YWYt9ngZXiTgXL01a-1" vertex="1">
          <mxGeometry x="20" y="595" width="3480" height="285" as="geometry" />
        </mxCell>
        <mxCell id="fE0YWYt9ngZXiTgXL01a-311" style="edgeStyle=orthogonalEdgeStyle;rounded=0;orthogonalLoop=1;jettySize=auto;html=1;exitX=0.5;exitY=1;exitDx=0;exitDy=0;exitPerimeter=0;entryX=0.5;entryY=0;entryDx=0;entryDy=0;entryPerimeter=0;" parent="fE0YWYt9ngZXiTgXL01a-68" source="fE0YWYt9ngZXiTgXL01a-104" edge="1" target="fE0YWYt9ngZXiTgXL01a-378">
          <mxGeometry relative="1" as="geometry">
            <mxPoint x="509" y="175" as="targetPoint" />
          </mxGeometry>
        </mxCell>
        <mxCell id="fE0YWYt9ngZXiTgXL01a-212" value="Принять заказ&amp;nbsp;&lt;div&gt;и разложить&amp;nbsp;&lt;/div&gt;&lt;div&gt;товары по местам&lt;/div&gt;" style="points=[[0.25,0,0],[0.5,0,0],[0.75,0,0],[1,0.25,0],[1,0.5,0],[1,0.75,0],[0.75,1,0],[0.5,1,0],[0.25,1,0],[0,0.75,0],[0,0.5,0],[0,0.25,0]];shape=mxgraph.bpmn.task;whiteSpace=wrap;rectStyle=rounded;size=10;html=1;container=1;expand=0;collapsible=0;taskMarker=manual;" parent="fE0YWYt9ngZXiTgXL01a-68" vertex="1">
          <mxGeometry x="2510" y="27.5" width="120" height="80" as="geometry" />
        </mxCell>
        <mxCell id="fE0YWYt9ngZXiTgXL01a-225" value="Подтвердить&lt;div&gt;возврат товаров&lt;/div&gt;&lt;div&gt;&amp;nbsp;в приложении&lt;/div&gt;" style="points=[[0.25,0,0],[0.5,0,0],[0.75,0,0],[1,0.25,0],[1,0.5,0],[1,0.75,0],[0.75,1,0],[0.5,1,0],[0.25,1,0],[0,0.75,0],[0,0.5,0],[0,0.25,0]];shape=mxgraph.bpmn.task;whiteSpace=wrap;rectStyle=rounded;size=10;html=1;container=1;expand=0;collapsible=0;taskMarker=user;" parent="fE0YWYt9ngZXiTgXL01a-68" vertex="1">
          <mxGeometry x="2660" y="27.5" width="120" height="80" as="geometry" />
        </mxCell>
        <mxCell id="fE0YWYt9ngZXiTgXL01a-231" style="edgeStyle=orthogonalEdgeStyle;rounded=0;orthogonalLoop=1;jettySize=auto;html=1;exitX=1;exitY=0.5;exitDx=0;exitDy=0;exitPerimeter=0;entryX=0;entryY=0.5;entryDx=0;entryDy=0;entryPerimeter=0;" parent="fE0YWYt9ngZXiTgXL01a-68" source="fE0YWYt9ngZXiTgXL01a-212" target="fE0YWYt9ngZXiTgXL01a-225" edge="1">
          <mxGeometry relative="1" as="geometry" />
        </mxCell>
        <mxCell id="fE0YWYt9ngZXiTgXL01a-104" value="" style="points=[[0.25,0.25,0],[0.5,0,0],[0.75,0.25,0],[1,0.5,0],[0.75,0.75,0],[0.5,1,0],[0.25,0.75,0],[0,0.5,0]];shape=mxgraph.bpmn.gateway2;html=1;verticalLabelPosition=bottom;labelBackgroundColor=#ffffff;verticalAlign=top;align=center;perimeter=rhombusPerimeter;outlineConnect=0;outline=none;symbol=none;gwType=exclusive;" parent="fE0YWYt9ngZXiTgXL01a-68" vertex="1">
          <mxGeometry x="485" y="42.5" width="50" height="50" as="geometry" />
        </mxCell>
        <mxCell id="fE0YWYt9ngZXiTgXL01a-162" style="edgeStyle=orthogonalEdgeStyle;rounded=0;orthogonalLoop=1;jettySize=auto;html=1;exitX=1;exitY=0.5;exitDx=0;exitDy=0;exitPerimeter=0;entryX=0;entryY=0.5;entryDx=0;entryDy=0;entryPerimeter=0;" parent="fE0YWYt9ngZXiTgXL01a-68" source="fE0YWYt9ngZXiTgXL01a-122" target="fE0YWYt9ngZXiTgXL01a-104" edge="1">
          <mxGeometry relative="1" as="geometry" />
        </mxCell>
        <mxCell id="fE0YWYt9ngZXiTgXL01a-134" value="Указать в приложении о начале сборки&amp;nbsp;" style="points=[[0.25,0,0],[0.5,0,0],[0.75,0,0],[1,0.25,0],[1,0.5,0],[1,0.75,0],[0.75,1,0],[0.5,1,0],[0.25,1,0],[0,0.75,0],[0,0.5,0],[0,0.25,0]];shape=mxgraph.bpmn.task;whiteSpace=wrap;rectStyle=rounded;size=10;html=1;container=1;expand=0;collapsible=0;taskMarker=user;" parent="fE0YWYt9ngZXiTgXL01a-68" vertex="1">
          <mxGeometry x="630" y="27.5" width="120" height="80" as="geometry" />
        </mxCell>
        <mxCell id="fE0YWYt9ngZXiTgXL01a-137" value="Собрать заказ" style="points=[[0.25,0,0],[0.5,0,0],[0.75,0,0],[1,0.25,0],[1,0.5,0],[1,0.75,0],[0.75,1,0],[0.5,1,0],[0.25,1,0],[0,0.75,0],[0,0.5,0],[0,0.25,0]];shape=mxgraph.bpmn.task;whiteSpace=wrap;rectStyle=rounded;size=10;html=1;container=1;expand=0;collapsible=0;taskMarker=manual;" parent="fE0YWYt9ngZXiTgXL01a-68" vertex="1">
          <mxGeometry x="790" y="27.5" width="120" height="80" as="geometry" />
        </mxCell>
        <mxCell id="fE0YWYt9ngZXiTgXL01a-129" value="Все товары в наличии" style="text;strokeColor=none;align=center;fillColor=#FFFFFF;html=1;verticalAlign=middle;whiteSpace=wrap;rounded=0;" parent="fE0YWYt9ngZXiTgXL01a-68" vertex="1">
          <mxGeometry x="520" y="107.5" width="60" height="30" as="geometry" />
        </mxCell>
        <mxCell id="fE0YWYt9ngZXiTgXL01a-102" style="edgeStyle=orthogonalEdgeStyle;rounded=0;orthogonalLoop=1;jettySize=auto;html=1;exitX=1;exitY=0.5;exitDx=0;exitDy=0;exitPerimeter=0;entryX=0;entryY=0.5;entryDx=0;entryDy=0;entryPerimeter=0;" parent="fE0YWYt9ngZXiTgXL01a-68" source="fE0YWYt9ngZXiTgXL01a-98" edge="1">
          <mxGeometry relative="1" as="geometry">
            <mxPoint x="330" y="67.49999999999977" as="targetPoint" />
          </mxGeometry>
        </mxCell>
        <mxCell id="fE0YWYt9ngZXiTgXL01a-98" value="Отправить список товаров сотрудникам склада" style="points=[[0.25,0,0],[0.5,0,0],[0.75,0,0],[1,0.25,0],[1,0.5,0],[1,0.75,0],[0.75,1,0],[0.5,1,0],[0.25,1,0],[0,0.75,0],[0,0.5,0],[0,0.25,0]];shape=mxgraph.bpmn.task;whiteSpace=wrap;rectStyle=rounded;size=10;html=1;container=1;expand=0;collapsible=0;taskMarker=service;" parent="fE0YWYt9ngZXiTgXL01a-68" vertex="1">
          <mxGeometry x="159.99571428571448" y="27.5" width="120" height="80" as="geometry" />
        </mxCell>
        <mxCell id="fE0YWYt9ngZXiTgXL01a-122" value="Проверить наличие товаров на складе" style="points=[[0.25,0,0],[0.5,0,0],[0.75,0,0],[1,0.25,0],[1,0.5,0],[1,0.75,0],[0.75,1,0],[0.5,1,0],[0.25,1,0],[0,0.75,0],[0,0.5,0],[0,0.25,0]];shape=mxgraph.bpmn.task;whiteSpace=wrap;rectStyle=rounded;size=10;html=1;container=1;expand=0;collapsible=0;taskMarker=manual;" parent="fE0YWYt9ngZXiTgXL01a-68" vertex="1">
          <mxGeometry x="330" y="27.5" width="120" height="80" as="geometry" />
        </mxCell>
        <mxCell id="fE0YWYt9ngZXiTgXL01a-317" style="edgeStyle=orthogonalEdgeStyle;rounded=0;orthogonalLoop=1;jettySize=auto;html=1;exitX=1;exitY=0.5;exitDx=0;exitDy=0;exitPerimeter=0;entryX=0.5;entryY=1;entryDx=0;entryDy=0;entryPerimeter=0;startArrow=diamond;startFill=0;" parent="fE0YWYt9ngZXiTgXL01a-68" target="fE0YWYt9ngZXiTgXL01a-134" edge="1" source="fE0YWYt9ngZXiTgXL01a-378">
          <mxGeometry relative="1" as="geometry">
            <mxPoint x="570" y="215" as="sourcePoint" />
          </mxGeometry>
        </mxCell>
        <mxCell id="fE0YWYt9ngZXiTgXL01a-378" value="Списание средств" style="points=[[0.25,0,0],[0.5,0,0],[0.75,0,0],[1,0.25,0],[1,0.5,0],[1,0.75,0],[0.75,1,0],[0.5,1,0],[0.25,1,0],[0,0.75,0],[0,0.5,0],[0,0.25,0]];shape=mxgraph.bpmn.task;whiteSpace=wrap;rectStyle=rounded;size=10;html=1;container=1;expand=0;collapsible=0;taskMarker=abstract;isLoopStandard=1;isLoopSub=1;" parent="fE0YWYt9ngZXiTgXL01a-68" vertex="1">
          <mxGeometry x="450" y="155" width="120" height="80" as="geometry" />
        </mxCell>
        <mxCell id="fE0YWYt9ngZXiTgXL01a-128" value="&lt;span style=&quot;background-color: rgb(255, 255, 255);&quot;&gt;Некоторые товары отсутствуют&lt;/span&gt;" style="text;strokeColor=none;align=center;fillColor=#FFFFFF;html=1;verticalAlign=middle;whiteSpace=wrap;rounded=0;" parent="fE0YWYt9ngZXiTgXL01a-68" vertex="1">
          <mxGeometry x="530" y="-2.5" width="60" height="30" as="geometry" />
        </mxCell>
        <mxCell id="luvfRPABZeonIOE7UT8U-22" value="Процесс будет повторяться,&amp;nbsp;&lt;div&gt;пока не будет произведена оплата.&amp;nbsp;&lt;/div&gt;" style="text;html=1;align=center;verticalAlign=middle;resizable=0;points=[];autosize=1;strokeColor=none;fillColor=none;" vertex="1" parent="fE0YWYt9ngZXiTgXL01a-68">
          <mxGeometry x="400" y="235" width="220" height="40" as="geometry" />
        </mxCell>
        <mxCell id="fE0YWYt9ngZXiTgXL01a-165" value="Указать в приложении о собранном заказе" style="points=[[0.25,0,0],[0.5,0,0],[0.75,0,0],[1,0.25,0],[1,0.5,0],[1,0.75,0],[0.75,1,0],[0.5,1,0],[0.25,1,0],[0,0.75,0],[0,0.5,0],[0,0.25,0]];shape=mxgraph.bpmn.task;whiteSpace=wrap;rectStyle=rounded;size=10;html=1;container=1;expand=0;collapsible=0;taskMarker=user;" parent="fE0YWYt9ngZXiTgXL01a-68" vertex="1">
          <mxGeometry x="980" y="27.5" width="120" height="80" as="geometry" />
        </mxCell>
        <mxCell id="luvfRPABZeonIOE7UT8U-40" value="" style="points=[[0.25,0.25,0],[0.5,0,0],[0.75,0.25,0],[1,0.5,0],[0.75,0.75,0],[0.5,1,0],[0.25,0.75,0],[0,0.5,0]];shape=mxgraph.bpmn.gateway2;html=1;verticalLabelPosition=bottom;labelBackgroundColor=#ffffff;verticalAlign=top;align=center;perimeter=rhombusPerimeter;outlineConnect=0;outline=none;symbol=none;gwType=parallel;" vertex="1" parent="fE0YWYt9ngZXiTgXL01a-68">
          <mxGeometry x="1805" y="189" width="50" height="50" as="geometry" />
        </mxCell>
        <mxCell id="luvfRPABZeonIOE7UT8U-37" style="edgeStyle=orthogonalEdgeStyle;rounded=0;orthogonalLoop=1;jettySize=auto;html=1;exitX=1;exitY=0.5;exitDx=0;exitDy=0;exitPerimeter=0;entryX=0.5;entryY=0;entryDx=0;entryDy=0;entryPerimeter=0;" edge="1" parent="fE0YWYt9ngZXiTgXL01a-68" target="luvfRPABZeonIOE7UT8U-40">
          <mxGeometry relative="1" as="geometry">
            <mxPoint x="1830" y="121.25" as="targetPoint" />
            <mxPoint x="1709.9957142857147" y="-66.25" as="sourcePoint" />
            <Array as="points">
              <mxPoint x="1830" y="-66" />
            </Array>
          </mxGeometry>
        </mxCell>
        <mxCell id="luvfRPABZeonIOE7UT8U-44" value="\" style="edgeLabel;html=1;align=center;verticalAlign=middle;resizable=0;points=[];" vertex="1" connectable="0" parent="luvfRPABZeonIOE7UT8U-37">
          <mxGeometry x="0.2473" y="-3" relative="1" as="geometry">
            <mxPoint as="offset" />
          </mxGeometry>
        </mxCell>
        <mxCell id="fE0YWYt9ngZXiTgXL01a-82" value="Курьер" style="swimlane;html=1;startSize=20;horizontal=0;" parent="fE0YWYt9ngZXiTgXL01a-1" vertex="1">
          <mxGeometry x="20" y="880" width="3480" height="220" as="geometry" />
        </mxCell>
        <mxCell id="fE0YWYt9ngZXiTgXL01a-177" style="edgeStyle=orthogonalEdgeStyle;rounded=0;orthogonalLoop=1;jettySize=auto;html=1;exitX=1;exitY=0.5;exitDx=0;exitDy=0;exitPerimeter=0;" parent="fE0YWYt9ngZXiTgXL01a-82" source="fE0YWYt9ngZXiTgXL01a-176" edge="1">
          <mxGeometry relative="1" as="geometry">
            <mxPoint x="1270" y="111.14285714285734" as="targetPoint" />
          </mxGeometry>
        </mxCell>
        <mxCell id="fE0YWYt9ngZXiTgXL01a-176" value="Уведомить о новом заказе" style="points=[[0.25,0,0],[0.5,0,0],[0.75,0,0],[1,0.25,0],[1,0.5,0],[1,0.75,0],[0.75,1,0],[0.5,1,0],[0.25,1,0],[0,0.75,0],[0,0.5,0],[0,0.25,0]];shape=mxgraph.bpmn.task;whiteSpace=wrap;rectStyle=rounded;size=10;html=1;container=1;expand=0;collapsible=0;taskMarker=service;" parent="fE0YWYt9ngZXiTgXL01a-82" vertex="1">
          <mxGeometry x="1109.9957142857145" y="71" width="120" height="80" as="geometry" />
        </mxCell>
        <mxCell id="fE0YWYt9ngZXiTgXL01a-179" style="edgeStyle=orthogonalEdgeStyle;rounded=0;orthogonalLoop=1;jettySize=auto;html=1;exitX=1;exitY=0.5;exitDx=0;exitDy=0;exitPerimeter=0;" parent="fE0YWYt9ngZXiTgXL01a-82" source="fE0YWYt9ngZXiTgXL01a-178" edge="1">
          <mxGeometry relative="1" as="geometry">
            <mxPoint x="1430" y="111.14285714285734" as="targetPoint" />
          </mxGeometry>
        </mxCell>
        <mxCell id="fE0YWYt9ngZXiTgXL01a-178" value="Указать в приложении согласие на доставку" style="points=[[0.25,0,0],[0.5,0,0],[0.75,0,0],[1,0.25,0],[1,0.5,0],[1,0.75,0],[0.75,1,0],[0.5,1,0],[0.25,1,0],[0,0.75,0],[0,0.5,0],[0,0.25,0]];shape=mxgraph.bpmn.task;whiteSpace=wrap;rectStyle=rounded;size=10;html=1;container=1;expand=0;collapsible=0;taskMarker=user;" parent="fE0YWYt9ngZXiTgXL01a-82" vertex="1">
          <mxGeometry x="1270" y="71" width="120" height="80" as="geometry" />
        </mxCell>
        <mxCell id="fE0YWYt9ngZXiTgXL01a-183" style="edgeStyle=orthogonalEdgeStyle;rounded=0;orthogonalLoop=1;jettySize=auto;html=1;exitX=1;exitY=0.5;exitDx=0;exitDy=0;exitPerimeter=0;" parent="fE0YWYt9ngZXiTgXL01a-82" source="fE0YWYt9ngZXiTgXL01a-182" edge="1">
          <mxGeometry relative="1" as="geometry">
            <mxPoint x="1590" y="111.14285714285734" as="targetPoint" />
          </mxGeometry>
        </mxCell>
        <mxCell id="fE0YWYt9ngZXiTgXL01a-182" value="Принять заказ со склада" style="points=[[0.25,0,0],[0.5,0,0],[0.75,0,0],[1,0.25,0],[1,0.5,0],[1,0.75,0],[0.75,1,0],[0.5,1,0],[0.25,1,0],[0,0.75,0],[0,0.5,0],[0,0.25,0]];shape=mxgraph.bpmn.task;whiteSpace=wrap;rectStyle=rounded;size=10;html=1;container=1;expand=0;collapsible=0;taskMarker=manual;" parent="fE0YWYt9ngZXiTgXL01a-82" vertex="1">
          <mxGeometry x="1430" y="71" width="120" height="80" as="geometry" />
        </mxCell>
        <mxCell id="fE0YWYt9ngZXiTgXL01a-184" value="Указать в приложении о начале транспортировки" style="points=[[0.25,0,0],[0.5,0,0],[0.75,0,0],[1,0.25,0],[1,0.5,0],[1,0.75,0],[0.75,1,0],[0.5,1,0],[0.25,1,0],[0,0.75,0],[0,0.5,0],[0,0.25,0]];shape=mxgraph.bpmn.task;whiteSpace=wrap;rectStyle=rounded;size=10;html=1;container=1;expand=0;collapsible=0;taskMarker=user;" parent="fE0YWYt9ngZXiTgXL01a-82" vertex="1">
          <mxGeometry x="1590" y="71" width="120" height="80" as="geometry" />
        </mxCell>
        <mxCell id="fE0YWYt9ngZXiTgXL01a-193" value="Доставить на указанный клиентом адрес" style="points=[[0.25,0,0],[0.5,0,0],[0.75,0,0],[1,0.25,0],[1,0.5,0],[1,0.75,0],[0.75,1,0],[0.5,1,0],[0.25,1,0],[0,0.75,0],[0,0.5,0],[0,0.25,0]];shape=mxgraph.bpmn.task;whiteSpace=wrap;rectStyle=rounded;size=10;html=1;container=1;expand=0;collapsible=0;taskMarker=manual;" parent="fE0YWYt9ngZXiTgXL01a-82" vertex="1">
          <mxGeometry x="1735" y="71" width="120" height="80" as="geometry" />
        </mxCell>
        <mxCell id="fE0YWYt9ngZXiTgXL01a-197" value="Попытаться связаться&amp;nbsp;&lt;div&gt;с клиентом&lt;/div&gt;" style="points=[[0.25,0,0],[0.5,0,0],[0.75,0,0],[1,0.25,0],[1,0.5,0],[1,0.75,0],[0.75,1,0],[0.5,1,0],[0.25,1,0],[0,0.75,0],[0,0.5,0],[0,0.25,0]];shape=mxgraph.bpmn.task;whiteSpace=wrap;rectStyle=rounded;size=10;html=1;container=1;expand=0;collapsible=0;taskMarker=manual;" parent="fE0YWYt9ngZXiTgXL01a-82" vertex="1">
          <mxGeometry x="1900" y="70" width="120" height="80" as="geometry" />
        </mxCell>
        <mxCell id="fE0YWYt9ngZXiTgXL01a-210" value="Доставить заказ&lt;div&gt;на склад&lt;/div&gt;" style="points=[[0.25,0,0],[0.5,0,0],[0.75,0,0],[1,0.25,0],[1,0.5,0],[1,0.75,0],[0.75,1,0],[0.5,1,0],[0.25,1,0],[0,0.75,0],[0,0.5,0],[0,0.25,0]];shape=mxgraph.bpmn.task;whiteSpace=wrap;rectStyle=rounded;size=10;html=1;container=1;expand=0;collapsible=0;taskMarker=manual;" parent="fE0YWYt9ngZXiTgXL01a-82" vertex="1">
          <mxGeometry x="2510" y="70" width="120" height="80" as="geometry" />
        </mxCell>
        <mxCell id="fE0YWYt9ngZXiTgXL01a-227" value="Подтвердить успешную доставку" style="points=[[0.25,0,0],[0.5,0,0],[0.75,0,0],[1,0.25,0],[1,0.5,0],[1,0.75,0],[0.75,1,0],[0.5,1,0],[0.25,1,0],[0,0.75,0],[0,0.5,0],[0,0.25,0]];shape=mxgraph.bpmn.task;whiteSpace=wrap;rectStyle=rounded;size=10;html=1;container=1;expand=0;collapsible=0;taskMarker=user;" parent="fE0YWYt9ngZXiTgXL01a-82" vertex="1">
          <mxGeometry x="3100" y="70" width="120" height="80" as="geometry" />
        </mxCell>
        <mxCell id="luvfRPABZeonIOE7UT8U-33" value="" style="points=[[0.25,0.25,0],[0.5,0,0],[0.75,0.25,0],[1,0.5,0],[0.75,0.75,0],[0.5,1,0],[0.25,0.75,0],[0,0.5,0]];shape=mxgraph.bpmn.gateway2;html=1;verticalLabelPosition=bottom;labelBackgroundColor=#ffffff;verticalAlign=top;align=center;perimeter=rhombusPerimeter;outlineConnect=0;outline=none;symbol=none;gwType=parallel;" vertex="1" parent="fE0YWYt9ngZXiTgXL01a-82">
          <mxGeometry x="1625" y="-96" width="50" height="50" as="geometry" />
        </mxCell>
        <mxCell id="luvfRPABZeonIOE7UT8U-34" style="edgeStyle=orthogonalEdgeStyle;rounded=0;orthogonalLoop=1;jettySize=auto;html=1;exitX=0.5;exitY=0;exitDx=0;exitDy=0;exitPerimeter=0;entryX=0.5;entryY=1;entryDx=0;entryDy=0;entryPerimeter=0;" edge="1" parent="fE0YWYt9ngZXiTgXL01a-82" source="fE0YWYt9ngZXiTgXL01a-184" target="luvfRPABZeonIOE7UT8U-33">
          <mxGeometry relative="1" as="geometry" />
        </mxCell>
        <mxCell id="luvfRPABZeonIOE7UT8U-48" style="edgeStyle=orthogonalEdgeStyle;rounded=0;orthogonalLoop=1;jettySize=auto;html=1;exitX=1;exitY=0.5;exitDx=0;exitDy=0;exitPerimeter=0;entryX=0.25;entryY=0;entryDx=0;entryDy=0;entryPerimeter=0;" edge="1" parent="fE0YWYt9ngZXiTgXL01a-82" source="luvfRPABZeonIOE7UT8U-33" target="fE0YWYt9ngZXiTgXL01a-193">
          <mxGeometry relative="1" as="geometry" />
        </mxCell>
        <mxCell id="fE0YWYt9ngZXiTgXL01a-211" style="edgeStyle=orthogonalEdgeStyle;rounded=0;orthogonalLoop=1;jettySize=auto;html=1;exitX=0.5;exitY=0;exitDx=0;exitDy=0;exitPerimeter=0;entryX=0.5;entryY=1;entryDx=0;entryDy=0;entryPerimeter=0;" parent="fE0YWYt9ngZXiTgXL01a-1" source="fE0YWYt9ngZXiTgXL01a-210" target="fE0YWYt9ngZXiTgXL01a-212" edge="1">
          <mxGeometry relative="1" as="geometry">
            <mxPoint x="2310" y="850" as="targetPoint" />
          </mxGeometry>
        </mxCell>
        <mxCell id="fE0YWYt9ngZXiTgXL01a-260" style="edgeStyle=orthogonalEdgeStyle;rounded=0;orthogonalLoop=1;jettySize=auto;html=1;exitX=0.5;exitY=1;exitDx=0;exitDy=0;exitPerimeter=0;entryX=0;entryY=0.5;entryDx=0;entryDy=0;entryPerimeter=0;" parent="fE0YWYt9ngZXiTgXL01a-1" source="fE0YWYt9ngZXiTgXL01a-232" target="fE0YWYt9ngZXiTgXL01a-210" edge="1">
          <mxGeometry relative="1" as="geometry" />
        </mxCell>
        <mxCell id="fE0YWYt9ngZXiTgXL01a-264" style="edgeStyle=orthogonalEdgeStyle;rounded=0;orthogonalLoop=1;jettySize=auto;html=1;exitX=1;exitY=0.5;exitDx=0;exitDy=0;exitPerimeter=0;entryX=0.5;entryY=1;entryDx=0;entryDy=0;entryPerimeter=0;" parent="fE0YWYt9ngZXiTgXL01a-1" source="fE0YWYt9ngZXiTgXL01a-225" target="fE0YWYt9ngZXiTgXL01a-261" edge="1">
          <mxGeometry relative="1" as="geometry" />
        </mxCell>
        <mxCell id="fE0YWYt9ngZXiTgXL01a-90" style="edgeStyle=orthogonalEdgeStyle;rounded=0;orthogonalLoop=1;jettySize=auto;html=1;exitX=0.5;exitY=1;exitDx=0;exitDy=0;exitPerimeter=0;" parent="fE0YWYt9ngZXiTgXL01a-1" source="fE0YWYt9ngZXiTgXL01a-89" target="fE0YWYt9ngZXiTgXL01a-91" edge="1">
          <mxGeometry relative="1" as="geometry">
            <mxPoint x="240.28571428571445" y="410" as="targetPoint" />
          </mxGeometry>
        </mxCell>
        <mxCell id="fE0YWYt9ngZXiTgXL01a-174" style="edgeStyle=orthogonalEdgeStyle;rounded=0;orthogonalLoop=1;jettySize=auto;html=1;exitX=0.5;exitY=1;exitDx=0;exitDy=0;exitPerimeter=0;entryX=0.5;entryY=0;entryDx=0;entryDy=0;entryPerimeter=0;" parent="fE0YWYt9ngZXiTgXL01a-1" source="fE0YWYt9ngZXiTgXL01a-173" target="fE0YWYt9ngZXiTgXL01a-176" edge="1">
          <mxGeometry relative="1" as="geometry">
            <mxPoint x="1190" y="1100" as="targetPoint" />
            <Array as="points">
              <mxPoint x="1220" y="930" />
              <mxPoint x="1190" y="930" />
            </Array>
          </mxGeometry>
        </mxCell>
        <mxCell id="fE0YWYt9ngZXiTgXL01a-97" style="edgeStyle=orthogonalEdgeStyle;rounded=0;orthogonalLoop=1;jettySize=auto;html=1;exitX=0.5;exitY=1;exitDx=0;exitDy=0;exitPerimeter=0;entryX=0.5;entryY=0;entryDx=0;entryDy=0;entryPerimeter=0;" parent="fE0YWYt9ngZXiTgXL01a-1" source="fE0YWYt9ngZXiTgXL01a-91" target="fE0YWYt9ngZXiTgXL01a-98" edge="1">
          <mxGeometry relative="1" as="geometry">
            <mxPoint x="240.28571428571445" y="740" as="targetPoint" />
          </mxGeometry>
        </mxCell>
        <mxCell id="fE0YWYt9ngZXiTgXL01a-293" style="edgeStyle=orthogonalEdgeStyle;rounded=0;orthogonalLoop=1;jettySize=auto;html=1;exitX=0.5;exitY=1;exitDx=0;exitDy=0;exitPerimeter=0;entryX=0.071;entryY=-0.001;entryDx=0;entryDy=0;entryPerimeter=0;dashed=1;dashPattern=1 4;" parent="fE0YWYt9ngZXiTgXL01a-1" source="fE0YWYt9ngZXiTgXL01a-289" target="fE0YWYt9ngZXiTgXL01a-91" edge="1">
          <mxGeometry relative="1" as="geometry" />
        </mxCell>
        <mxCell id="luvfRPABZeonIOE7UT8U-2" style="edgeStyle=orthogonalEdgeStyle;rounded=0;orthogonalLoop=1;jettySize=auto;html=1;exitX=1;exitY=0.5;exitDx=0;exitDy=0;exitPerimeter=0;entryX=0;entryY=0.5;entryDx=0;entryDy=0;entryPerimeter=0;" edge="1" parent="fE0YWYt9ngZXiTgXL01a-1" source="fE0YWYt9ngZXiTgXL01a-197" target="fE0YWYt9ngZXiTgXL01a-201">
          <mxGeometry relative="1" as="geometry">
            <mxPoint x="2080" y="280" as="targetPoint" />
          </mxGeometry>
        </mxCell>
        <mxCell id="fE0YWYt9ngZXiTgXL01a-279" style="edgeStyle=orthogonalEdgeStyle;rounded=0;orthogonalLoop=1;jettySize=auto;html=1;exitX=0.5;exitY=0;exitDx=0;exitDy=0;exitPerimeter=0;entryX=0.5;entryY=1;entryDx=0;entryDy=0;entryPerimeter=0;" parent="fE0YWYt9ngZXiTgXL01a-1" source="luvfRPABZeonIOE7UT8U-8" target="fE0YWYt9ngZXiTgXL01a-278" edge="1">
          <mxGeometry relative="1" as="geometry">
            <mxPoint x="540" y="210" as="sourcePoint" />
          </mxGeometry>
        </mxCell>
        <mxCell id="fE0YWYt9ngZXiTgXL01a-280" style="edgeStyle=orthogonalEdgeStyle;rounded=0;orthogonalLoop=1;jettySize=auto;html=1;entryX=0.75;entryY=0;entryDx=0;entryDy=0;entryPerimeter=0;exitX=0;exitY=0.75;exitDx=0;exitDy=0;exitPerimeter=0;" parent="fE0YWYt9ngZXiTgXL01a-1" source="fE0YWYt9ngZXiTgXL01a-278" target="fE0YWYt9ngZXiTgXL01a-98" edge="1">
          <mxGeometry relative="1" as="geometry">
            <Array as="points">
              <mxPoint x="330" y="265" />
              <mxPoint x="330" y="510" />
              <mxPoint x="270" y="510" />
            </Array>
            <mxPoint x="450" y="240" as="sourcePoint" />
            <mxPoint x="329.9957142857147" y="637.5" as="targetPoint" />
          </mxGeometry>
        </mxCell>
        <mxCell id="luvfRPABZeonIOE7UT8U-26" style="edgeStyle=orthogonalEdgeStyle;rounded=0;orthogonalLoop=1;jettySize=auto;html=1;exitX=0.5;exitY=1;exitDx=0;exitDy=0;exitPerimeter=0;entryX=0;entryY=0.5;entryDx=0;entryDy=0;entryPerimeter=0;" edge="1" parent="fE0YWYt9ngZXiTgXL01a-1" source="luvfRPABZeonIOE7UT8U-24" target="fE0YWYt9ngZXiTgXL01a-137">
          <mxGeometry relative="1" as="geometry" />
        </mxCell>
        <mxCell id="luvfRPABZeonIOE7UT8U-30" style="edgeStyle=orthogonalEdgeStyle;rounded=0;orthogonalLoop=1;jettySize=auto;html=1;entryX=0.5;entryY=1;entryDx=0;entryDy=0;entryPerimeter=0;" edge="1" parent="fE0YWYt9ngZXiTgXL01a-1" source="fE0YWYt9ngZXiTgXL01a-137" target="luvfRPABZeonIOE7UT8U-28">
          <mxGeometry relative="1" as="geometry">
            <Array as="points">
              <mxPoint x="955" y="663" />
            </Array>
          </mxGeometry>
        </mxCell>
        <mxCell id="luvfRPABZeonIOE7UT8U-31" style="edgeStyle=orthogonalEdgeStyle;rounded=0;orthogonalLoop=1;jettySize=auto;html=1;exitX=1;exitY=0.5;exitDx=0;exitDy=0;exitPerimeter=0;entryX=0;entryY=0.5;entryDx=0;entryDy=0;entryPerimeter=0;" edge="1" parent="fE0YWYt9ngZXiTgXL01a-1" source="luvfRPABZeonIOE7UT8U-28" target="fE0YWYt9ngZXiTgXL01a-165">
          <mxGeometry relative="1" as="geometry">
            <Array as="points">
              <mxPoint x="980" y="662" />
            </Array>
          </mxGeometry>
        </mxCell>
        <mxCell id="fE0YWYt9ngZXiTgXL01a-170" style="edgeStyle=orthogonalEdgeStyle;rounded=0;orthogonalLoop=1;jettySize=auto;html=1;exitX=0.5;exitY=0;exitDx=0;exitDy=0;exitPerimeter=0;entryX=0.5;entryY=1;entryDx=0;entryDy=0;entryPerimeter=0;" parent="fE0YWYt9ngZXiTgXL01a-1" source="fE0YWYt9ngZXiTgXL01a-165" target="fE0YWYt9ngZXiTgXL01a-168" edge="1">
          <mxGeometry relative="1" as="geometry">
            <mxPoint x="1060" y="670" as="targetPoint" />
            <mxPoint x="1060" y="760" as="sourcePoint" />
          </mxGeometry>
        </mxCell>
        <mxCell id="luvfRPABZeonIOE7UT8U-36" style="edgeStyle=orthogonalEdgeStyle;rounded=0;orthogonalLoop=1;jettySize=auto;html=1;exitX=0.5;exitY=0;exitDx=0;exitDy=0;exitPerimeter=0;entryX=0.5;entryY=1;entryDx=0;entryDy=0;entryPerimeter=0;" edge="1" parent="fE0YWYt9ngZXiTgXL01a-1" source="luvfRPABZeonIOE7UT8U-33" target="fE0YWYt9ngZXiTgXL01a-189">
          <mxGeometry relative="1" as="geometry" />
        </mxCell>
        <mxCell id="luvfRPABZeonIOE7UT8U-43" style="edgeStyle=orthogonalEdgeStyle;rounded=0;orthogonalLoop=1;jettySize=auto;html=1;exitX=1;exitY=0.5;exitDx=0;exitDy=0;exitPerimeter=0;entryX=0.424;entryY=0.003;entryDx=0;entryDy=0;entryPerimeter=0;" edge="1" parent="fE0YWYt9ngZXiTgXL01a-1" source="luvfRPABZeonIOE7UT8U-40" target="fE0YWYt9ngZXiTgXL01a-197">
          <mxGeometry relative="1" as="geometry" />
        </mxCell>
        <mxCell id="luvfRPABZeonIOE7UT8U-49" style="edgeStyle=orthogonalEdgeStyle;rounded=0;orthogonalLoop=1;jettySize=auto;html=1;entryX=0.5;entryY=1;entryDx=0;entryDy=0;entryPerimeter=0;" edge="1" parent="fE0YWYt9ngZXiTgXL01a-1" target="luvfRPABZeonIOE7UT8U-40">
          <mxGeometry relative="1" as="geometry">
            <mxPoint x="1850" y="950" as="sourcePoint" />
          </mxGeometry>
        </mxCell>
        <mxCell id="luvfRPABZeonIOE7UT8U-51" value="" style="edgeStyle=orthogonalEdgeStyle;rounded=0;orthogonalLoop=1;jettySize=auto;html=1;" edge="1" parent="fE0YWYt9ngZXiTgXL01a-1" source="fE0YWYt9ngZXiTgXL01a-201" target="luvfRPABZeonIOE7UT8U-50">
          <mxGeometry relative="1" as="geometry" />
        </mxCell>
        <mxCell id="fE0YWYt9ngZXiTgXL01a-332" value="Списание средств за заказ" style="swimlane;html=1;childLayout=stackLayout;resizeParent=1;resizeParentMax=0;horizontal=1;startSize=20;horizontalStack=0;whiteSpace=wrap;" parent="1" vertex="1">
          <mxGeometry x="50" y="1180" width="910" height="490" as="geometry" />
        </mxCell>
        <mxCell id="fE0YWYt9ngZXiTgXL01a-333" value="Клиент" style="swimlane;html=1;startSize=20;horizontal=0;" parent="fE0YWYt9ngZXiTgXL01a-332" vertex="1">
          <mxGeometry y="20" width="910" height="120" as="geometry" />
        </mxCell>
        <mxCell id="fE0YWYt9ngZXiTgXL01a-334" value="Приложение&amp;nbsp;" style="swimlane;html=1;startSize=20;horizontal=0;" parent="fE0YWYt9ngZXiTgXL01a-332" vertex="1">
          <mxGeometry y="140" width="910" height="350" as="geometry" />
        </mxCell>
        <mxCell id="fE0YWYt9ngZXiTgXL01a-336" value="Необходимость&amp;nbsp;&lt;div&gt;оплаты заказа&lt;/div&gt;" style="points=[[0.145,0.145,0],[0.5,0,0],[0.855,0.145,0],[1,0.5,0],[0.855,0.855,0],[0.5,1,0],[0.145,0.855,0],[0,0.5,0]];shape=mxgraph.bpmn.event;html=1;verticalLabelPosition=bottom;labelBackgroundColor=#ffffff;verticalAlign=top;align=center;perimeter=ellipsePerimeter;outlineConnect=0;aspect=fixed;outline=standard;symbol=general;" parent="fE0YWYt9ngZXiTgXL01a-334" vertex="1">
          <mxGeometry x="80" y="154" width="50" height="50" as="geometry" />
        </mxCell>
        <mxCell id="fE0YWYt9ngZXiTgXL01a-340" value="Попытаться списать средства" style="points=[[0.25,0,0],[0.5,0,0],[0.75,0,0],[1,0.25,0],[1,0.5,0],[1,0.75,0],[0.75,1,0],[0.5,1,0],[0.25,1,0],[0,0.75,0],[0,0.5,0],[0,0.25,0]];shape=mxgraph.bpmn.task;whiteSpace=wrap;rectStyle=rounded;size=10;html=1;container=1;expand=0;collapsible=0;taskMarker=service;" parent="fE0YWYt9ngZXiTgXL01a-334" vertex="1">
          <mxGeometry x="199.99571428571448" y="139" width="120" height="80" as="geometry" />
        </mxCell>
        <mxCell id="fE0YWYt9ngZXiTgXL01a-341" style="edgeStyle=orthogonalEdgeStyle;rounded=0;orthogonalLoop=1;jettySize=auto;html=1;exitX=1;exitY=0.5;exitDx=0;exitDy=0;exitPerimeter=0;entryX=0;entryY=0.5;entryDx=0;entryDy=0;entryPerimeter=0;" parent="fE0YWYt9ngZXiTgXL01a-334" source="fE0YWYt9ngZXiTgXL01a-336" target="fE0YWYt9ngZXiTgXL01a-340" edge="1">
          <mxGeometry relative="1" as="geometry" />
        </mxCell>
        <mxCell id="fE0YWYt9ngZXiTgXL01a-342" value="" style="points=[[0.25,0.25,0],[0.5,0,0],[0.75,0.25,0],[1,0.5,0],[0.75,0.75,0],[0.5,1,0],[0.25,0.75,0],[0,0.5,0]];shape=mxgraph.bpmn.gateway2;html=1;verticalLabelPosition=bottom;labelBackgroundColor=#ffffff;verticalAlign=top;align=center;perimeter=rhombusPerimeter;outlineConnect=0;outline=none;symbol=none;gwType=exclusive;" parent="fE0YWYt9ngZXiTgXL01a-334" vertex="1">
          <mxGeometry x="370" y="154" width="50" height="50" as="geometry" />
        </mxCell>
        <mxCell id="fE0YWYt9ngZXiTgXL01a-343" style="edgeStyle=orthogonalEdgeStyle;rounded=0;orthogonalLoop=1;jettySize=auto;html=1;exitX=1;exitY=0.5;exitDx=0;exitDy=0;exitPerimeter=0;entryX=0;entryY=0.5;entryDx=0;entryDy=0;entryPerimeter=0;" parent="fE0YWYt9ngZXiTgXL01a-334" source="fE0YWYt9ngZXiTgXL01a-340" target="fE0YWYt9ngZXiTgXL01a-342" edge="1">
          <mxGeometry relative="1" as="geometry" />
        </mxCell>
        <mxCell id="fE0YWYt9ngZXiTgXL01a-358" value="Уведомить клиента об успешно оформленном заказе" style="points=[[0.25,0,0],[0.5,0,0],[0.75,0,0],[1,0.25,0],[1,0.5,0],[1,0.75,0],[0.75,1,0],[0.5,1,0],[0.25,1,0],[0,0.75,0],[0,0.5,0],[0,0.25,0]];shape=mxgraph.bpmn.task;whiteSpace=wrap;rectStyle=rounded;size=10;html=1;container=1;expand=0;collapsible=0;taskMarker=service;" parent="fE0YWYt9ngZXiTgXL01a-334" vertex="1">
          <mxGeometry x="469.9957142857145" y="59" width="120" height="80" as="geometry" />
        </mxCell>
        <mxCell id="fE0YWYt9ngZXiTgXL01a-369" value="Уведомить клиента об ошибке, попросить повторить попытку" style="points=[[0.25,0,0],[0.5,0,0],[0.75,0,0],[1,0.25,0],[1,0.5,0],[1,0.75,0],[0.75,1,0],[0.5,1,0],[0.25,1,0],[0,0.75,0],[0,0.5,0],[0,0.25,0]];shape=mxgraph.bpmn.task;whiteSpace=wrap;rectStyle=rounded;size=10;html=1;container=1;expand=0;collapsible=0;taskMarker=service;" parent="fE0YWYt9ngZXiTgXL01a-334" vertex="1">
          <mxGeometry x="469.9957142857145" y="219" width="120" height="80" as="geometry" />
        </mxCell>
        <mxCell id="luvfRPABZeonIOE7UT8U-12" value="Оплата прошла успешно" style="text;strokeColor=none;align=center;fillColor=none;html=1;verticalAlign=middle;whiteSpace=wrap;rounded=0;" vertex="1" parent="fE0YWYt9ngZXiTgXL01a-334">
          <mxGeometry x="360" y="59" width="110" height="30" as="geometry" />
        </mxCell>
        <mxCell id="luvfRPABZeonIOE7UT8U-13" style="edgeStyle=orthogonalEdgeStyle;rounded=0;orthogonalLoop=1;jettySize=auto;html=1;exitX=0.5;exitY=1;exitDx=0;exitDy=0;" edge="1" parent="fE0YWYt9ngZXiTgXL01a-334" source="luvfRPABZeonIOE7UT8U-12" target="luvfRPABZeonIOE7UT8U-12">
          <mxGeometry relative="1" as="geometry" />
        </mxCell>
        <mxCell id="luvfRPABZeonIOE7UT8U-15" style="edgeStyle=orthogonalEdgeStyle;rounded=0;orthogonalLoop=1;jettySize=auto;html=1;exitX=0.5;exitY=1;exitDx=0;exitDy=0;exitPerimeter=0;entryX=0;entryY=0.5;entryDx=0;entryDy=0;entryPerimeter=0;" edge="1" parent="fE0YWYt9ngZXiTgXL01a-334" source="fE0YWYt9ngZXiTgXL01a-342" target="fE0YWYt9ngZXiTgXL01a-369">
          <mxGeometry relative="1" as="geometry" />
        </mxCell>
        <mxCell id="luvfRPABZeonIOE7UT8U-14" value="&lt;span style=&quot;color: rgb(0, 0, 0); font-family: Helvetica; font-size: 12px; font-style: normal; font-variant-ligatures: normal; font-variant-caps: normal; font-weight: 400; letter-spacing: normal; orphans: 2; text-align: center; text-indent: 0px; text-transform: none; widows: 2; word-spacing: 0px; -webkit-text-stroke-width: 0px; white-space: normal; background-color: rgb(251, 251, 251); text-decoration-thickness: initial; text-decoration-style: initial; text-decoration-color: initial; display: inline !important; float: none;&quot;&gt;Оплата не прошла&amp;nbsp;&lt;/span&gt;" style="text;whiteSpace=wrap;html=1;" vertex="1" parent="fE0YWYt9ngZXiTgXL01a-334">
          <mxGeometry x="350" y="259" width="110" height="40" as="geometry" />
        </mxCell>
        <mxCell id="luvfRPABZeonIOE7UT8U-16" style="edgeStyle=orthogonalEdgeStyle;rounded=0;orthogonalLoop=1;jettySize=auto;html=1;exitX=0.5;exitY=0;exitDx=0;exitDy=0;exitPerimeter=0;entryX=0;entryY=0.5;entryDx=0;entryDy=0;entryPerimeter=0;" edge="1" parent="fE0YWYt9ngZXiTgXL01a-334" source="fE0YWYt9ngZXiTgXL01a-342" target="fE0YWYt9ngZXiTgXL01a-358">
          <mxGeometry relative="1" as="geometry" />
        </mxCell>
        <mxCell id="fE0YWYt9ngZXiTgXL01a-365" value="" style="points=[[0.145,0.145,0],[0.5,0,0],[0.855,0.145,0],[1,0.5,0],[0.855,0.855,0],[0.5,1,0],[0.145,0.855,0],[0,0.5,0]];shape=mxgraph.bpmn.event;html=1;verticalLabelPosition=bottom;labelBackgroundColor=#ffffff;verticalAlign=top;align=center;perimeter=ellipsePerimeter;outlineConnect=0;aspect=fixed;outline=end;symbol=terminate2;" parent="fE0YWYt9ngZXiTgXL01a-334" vertex="1">
          <mxGeometry x="675" y="74" width="50" height="50" as="geometry" />
        </mxCell>
        <mxCell id="fE0YWYt9ngZXiTgXL01a-366" value="Оплата прошла (условие выполнено)" style="text;strokeColor=none;align=center;fillColor=none;html=1;verticalAlign=middle;whiteSpace=wrap;rounded=0;" parent="fE0YWYt9ngZXiTgXL01a-334" vertex="1">
          <mxGeometry x="630" y="124" width="140" height="40" as="geometry" />
        </mxCell>
        <mxCell id="luvfRPABZeonIOE7UT8U-18" style="edgeStyle=orthogonalEdgeStyle;rounded=0;orthogonalLoop=1;jettySize=auto;html=1;exitX=1;exitY=0.5;exitDx=0;exitDy=0;exitPerimeter=0;entryX=0;entryY=0.5;entryDx=0;entryDy=0;entryPerimeter=0;" edge="1" parent="fE0YWYt9ngZXiTgXL01a-334" source="fE0YWYt9ngZXiTgXL01a-358" target="fE0YWYt9ngZXiTgXL01a-365">
          <mxGeometry relative="1" as="geometry" />
        </mxCell>
        <mxCell id="fE0YWYt9ngZXiTgXL01a-373" value="" style="points=[[0.145,0.145,0],[0.5,0,0],[0.855,0.145,0],[1,0.5,0],[0.855,0.855,0],[0.5,1,0],[0.145,0.855,0],[0,0.5,0]];shape=mxgraph.bpmn.event;html=1;verticalLabelPosition=bottom;labelBackgroundColor=#ffffff;verticalAlign=top;align=center;perimeter=ellipsePerimeter;outlineConnect=0;aspect=fixed;outline=end;symbol=terminate2;" parent="fE0YWYt9ngZXiTgXL01a-334" vertex="1">
          <mxGeometry x="670" y="234" width="50" height="50" as="geometry" />
        </mxCell>
        <mxCell id="fE0YWYt9ngZXiTgXL01a-374" style="edgeStyle=orthogonalEdgeStyle;rounded=0;orthogonalLoop=1;jettySize=auto;html=1;exitX=1;exitY=0.25;exitDx=0;exitDy=0;exitPerimeter=0;entryX=0;entryY=0.5;entryDx=0;entryDy=0;entryPerimeter=0;" parent="fE0YWYt9ngZXiTgXL01a-334" target="fE0YWYt9ngZXiTgXL01a-373" edge="1">
          <mxGeometry relative="1" as="geometry">
            <mxPoint x="589.9957142857143" y="259" as="sourcePoint" />
            <Array as="points">
              <mxPoint x="640" y="259" />
              <mxPoint x="640" y="259" />
            </Array>
          </mxGeometry>
        </mxCell>
        <mxCell id="fE0YWYt9ngZXiTgXL01a-377" value="Оплата не прошла (условие не выполнено)" style="text;strokeColor=none;align=center;fillColor=none;html=1;verticalAlign=middle;whiteSpace=wrap;rounded=0;" parent="fE0YWYt9ngZXiTgXL01a-334" vertex="1">
          <mxGeometry x="630" y="284" width="140" height="40" as="geometry" />
        </mxCell>
      </root>
    </mxGraphModel>
  </diagram>
</mxfile>
